<svg width="40" height="40" viewBox="0 0 40 40" fill="none" xmlns="http://www.w3.org/2000/svg">
<path d="M31.7004 26.2502C30.0141 25.2847 29.2023 25.4914 24.3938 27.0184L19.4621 20.279C23.307 20.3188 29.5057 19.8162 30.8108 14.7517C31.3096 12.8113 31.0004 11.0491 29.925 9.66065C28.5004 7.82264 25.8146 6.81543 22.3586 6.81543C20.2721 6.81543 9.79407 7.04684 9.34832 7.05822L9.28952 7.17772V9.21869L16.1067 18.5434H9.29332V20.2278H16.9033H17.3453L22.7019 27.5533C16.1749 29.5943 13.0281 30.2487 11.818 30.4516C11.392 30.5302 10.9571 30.5475 10.5262 30.5028C8.94241 30.3131 8.94241 29.4975 8.94241 29.2073C8.94241 28.4277 9.85857 28.0692 9.89082 28.0559L9.32178 26.474C8.56305 26.7509 7.26562 27.6386 7.26562 29.2073C7.26562 29.8845 7.52928 32.0525 10.8696 32.2138C11.1728 32.2264 11.4766 32.2087 11.7763 32.1606C12.9599 31.988 16.2982 31.3431 23.802 28.974C24.7504 30.0305 27.2277 32.4509 29.7429 32.4509C30.2433 32.4527 30.7387 32.3507 31.1977 32.1512C32.4458 31.6068 33.2008 30.5692 33.269 29.3059C33.3373 28.0427 32.7 26.8306 31.7042 26.2559L31.7004 26.2502ZM11.0004 8.70086C14.115 8.63258 20.7842 8.49411 22.3605 8.49411C25.2835 8.49411 27.4989 9.2737 28.5991 10.6906C29.3445 11.6561 29.5475 12.9137 29.1833 14.3306C28.0452 18.7445 21.579 18.6686 18.2159 18.57L11.0004 8.70086ZM30.5206 30.6072C28.9936 31.2729 26.8711 29.6682 25.5888 28.4068C29.6063 27.1398 29.8927 27.1531 30.8658 27.7107C31.3172 27.9687 31.6245 28.5984 31.5866 29.2092C31.5619 29.6455 31.359 30.243 30.5244 30.6072" fill="#BA967D"/>
<path d="M20 40C16.0444 40 12.1776 38.827 8.8886 36.6294C5.59962 34.4318 3.03617 31.3082 1.52242 27.6537C0.00866284 23.9992 -0.3874 19.9778 0.384304 16.0982C1.15601 12.2186 3.06083 8.65493 5.85788 5.85788C8.65493 3.06083 12.2186 1.15601 16.0982 0.384303C19.9778 -0.387401 23.9992 0.00866718 27.6537 1.52242C31.3082 3.03617 34.4318 5.59962 36.6294 8.8886C38.827 12.1776 40 16.0444 40 20C39.994 25.3025 37.8849 30.3861 34.1355 34.1355C30.3861 37.8849 25.3025 39.994 20 40ZM20 1.76215C16.3929 1.76215 12.8668 2.83178 9.86759 4.83578C6.86839 6.83978 4.53081 9.68815 3.15043 13.0207C1.77005 16.3532 1.40888 20.0202 2.11259 23.558C2.8163 27.0958 4.55328 30.3455 7.10389 32.8961C9.6545 35.4467 12.9042 37.1837 16.442 37.8874C19.9798 38.5911 23.6468 38.23 26.9793 36.8496C30.3119 35.4692 33.1602 33.1316 35.1642 30.1324C37.1682 27.1332 38.2379 23.6071 38.2379 20C38.2323 15.1647 36.3091 10.5291 32.89 7.10999C29.4709 3.69093 24.8353 1.76767 20 1.76215Z" fill="#BA967D"/>
</svg>
